<?xml version="1.0" standalone="no"?><!DOCTYPE svg PUBLIC "-//W3C//DTD SVG 1.1//EN" "http://www.w3.org/Graphics/SVG/1.1/DTD/svg11.dtd"><svg t="1652363781271" class="icon" viewBox="0 0 1024 1024" version="1.1" xmlns="http://www.w3.org/2000/svg" p-id="14850" xmlns:xlink="http://www.w3.org/1999/xlink" width="200" height="200"><defs><style type="text/css"></style></defs><path d="M512 42.666667C253.866667 42.666667 42.666667 253.866667 42.666667 512s211.2 469.333333 469.333333 469.333333 469.333333-211.2 469.333333-469.333333S770.133333 42.666667 512 42.666667z m221.866667 377.6L488.533333 663.466667c-8.533333 8.533333-19.2 12.8-29.866666 12.8s-21.333333-4.266667-29.866667-12.8l-138.666667-138.666667c-17.066667-17.066667-17.066667-42.666667 0-59.733333 17.066667-17.066667 42.666667-17.066667 59.733334 0l108.8 108.8 215.466666-215.466667c17.066667-17.066667 42.666667-17.066667 59.733334 0 17.066667 17.066667 17.066667 44.8 0 61.866667z" fill="#80B7F9" p-id="14851"></path></svg>