<?xml version="1.0" standalone="no"?><!DOCTYPE svg PUBLIC "-//W3C//DTD SVG 1.1//EN" "http://www.w3.org/Graphics/SVG/1.1/DTD/svg11.dtd"><svg t="1652359926318" class="icon" viewBox="0 0 1038 1024" version="1.1" xmlns="http://www.w3.org/2000/svg" p-id="5807" xmlns:xlink="http://www.w3.org/1999/xlink" width="202.734375" height="200"><defs><style type="text/css"></style></defs><path d="M920.353753 0H118.185801A118.185801 118.185801 0 0 0 0 118.185801v787.628398a118.185801 118.185801 0 0 0 118.185801 118.185801h802.167952A118.185801 118.185801 0 0 0 1038.539554 905.814199V118.185801A118.185801 118.185801 0 0 0 920.353753 0z" fill="#E7EAEC" p-id="5808"></path><path d="M519.269777 514.492495m-420.608519 0a420.608519 420.608519 0 1 0 841.217038 0 420.608519 420.608519 0 1 0-841.217038 0Z" fill="#57555E" p-id="5809"></path><path d="M519.269777 514.492495m-365.150507 0a365.150507 365.150507 0 1 0 730.301014 0 365.150507 365.150507 0 1 0-730.301014 0Z" fill="#CDD1DA" p-id="5810"></path><path d="M519.269777 884.212576a369.720081 369.720081 0 1 1 369.720081-369.720081A370.135497 370.135497 0 0 1 519.269777 884.212576z m0-734.039757a364.319675 364.319675 0 1 0 364.319675 364.319676A364.735091 364.735091 0 0 0 519.269777 150.172819z" fill="#989BA5" p-id="5811"></path><path d="M519.269777 939.047465a425.593509 425.593509 0 1 1 426.424341-425.59351A426.008925 426.008925 0 0 1 519.269777 939.047465z m0-844.955781a419.362272 419.362272 0 1 0 420.400811 419.362271A419.985396 419.985396 0 0 0 519.269777 94.091684z" fill="#C2C5D1" p-id="5812"></path><path d="M920.353753 994.920892H118.185801A118.185801 118.185801 0 0 1 0 876.735091v29.079108a118.185801 118.185801 0 0 0 118.185801 118.185801h802.167952A118.185801 118.185801 0 0 0 1038.539554 905.814199v-29.079108a118.185801 118.185801 0 0 1-118.185801 118.185801z" fill="#979797" p-id="5813"></path><path d="M920.353753 29.079108H118.185801A118.185801 118.185801 0 0 0 0 147.264909v-29.079108A118.185801 118.185801 0 0 1 118.185801 0h802.167952A118.185801 118.185801 0 0 1 1038.539554 118.185801v29.079108a118.185801 118.185801 0 0 0-118.185801-118.185801z" fill="#FFFFFF" p-id="5814"></path><path d="M498.08357 213.316024h39.049087v168.866532h-39.049087z" fill="#FF0000" p-id="5815"></path><path d="M514.907911 230.140365h5.192698v135.21785h-5.192698z" fill="#FFE9E9" p-id="5816"></path><path d="M624.577688 290.791075v47.565112a205.215416 205.215416 0 1 1-217.262475 4.154158v-47.77282A246.756998 246.756998 0 1 0 624.577688 290.791075z" fill="#FF0000" p-id="5817"></path><path d="M624.577688 311.561866v6.02353a223.909128 223.909128 0 1 1-217.262475 4.361866v-6.231238a228.478702 228.478702 0 1 0 217.262475-4.154158z" fill="#FFE9E9" p-id="5818"></path></svg>