<?xml version="1.0" standalone="no"?><!DOCTYPE svg PUBLIC "-//W3C//DTD SVG 1.1//EN" "http://www.w3.org/Graphics/SVG/1.1/DTD/svg11.dtd"><svg t="1652367455233" class="icon" viewBox="0 0 1176 1024" version="1.1" xmlns="http://www.w3.org/2000/svg" p-id="39480" xmlns:xlink="http://www.w3.org/1999/xlink" width="229.6875" height="200"><defs><style type="text/css"></style></defs><path d="M1050.586326 1004.899991c94.288103 0 133.986347-62.200279 88.204538-138.242457L662.669584 75.817922c-45.786581-76.023093-119.819991-75.579351-164.52823 0.97337L37.355429 865.698478c-44.717782 76.562264-4.15591 139.201513 90.141736 139.201513h923.089161z" fill="#FFE875" p-id="39481"></path><path d="M1157.88133 863.82808L681.755278 72.988468c-45.786581-76.023093-119.819991-75.579351-164.52823 0.97337l-3.941196 6.765879c34.635764-26.405058 76.605207-14.667356 105.176492 35.532792l391.266281 687.280633c37.622675 66.084217 4.995681 120.15399-72.482696 120.15399H178.713626c-77.473606 0-110.811543-54.451487-74.057266-120.960361L331.112898 392.640452l-274.65746 470.2238c-44.727325 76.562264-4.160681 139.211056 90.136964 139.211056h923.08439c94.283331 0 133.981576-62.20505 88.204538-138.247228z" fill="#FFD175" p-id="39482"></path><path d="M1050.586326 1023.985686H127.492393c-53.950487 0-96.106015-19.534208-115.654537-53.587859-18.455867-32.149853-15.244699-72.749896 9.037076-114.323311l460.785924-788.907185C506.954173 23.852347 542.028908 0 580.419783 0c37.966218 0 72.978925 23.42769 98.606241 65.969703l476.12128 790.839612c24.897289 41.353929 28.633313 81.77743 10.516218 113.822312-19.162037 33.905736-61.102851 53.354059-115.077196 53.354059zM580.419783 38.171389c-24.257918 0-47.623579 17.134182-65.797932 48.243865l-460.785924 788.907185c-17.096011 29.263141-20.249922 56.278942-8.889163 76.066036 12.558387 21.872206 42.646985 34.42105 82.550401 34.42105h923.093933c39.81753 0 69.648471-12.377073 81.839458-33.953451 11.045846-19.548523 7.500678-46.306666-9.98659-75.355093L646.322686 85.661369C627.876363 55.038372 604.47253 38.171389 580.419783 38.171389z" fill="#6E6E96" p-id="39483"></path><path d="M596.279995 640.668596a33.399966 33.399966 0 0 1-33.399965-33.399966V353.447978a33.399966 33.399966 0 1 1 66.799931 0v253.815881a33.399966 33.399966 0 0 1-33.399966 33.404737zM596.279995 867.420962a33.399966 33.399966 0 0 1-33.399965-33.399966v-52.85306a33.399966 33.399966 0 1 1 66.799931 0v52.85306a33.399966 33.399966 0 0 1-33.399966 33.399966z" fill="#6E6E96" p-id="39484"></path></svg>