<?xml version="1.0" standalone="no"?><!DOCTYPE svg PUBLIC "-//W3C//DTD SVG 1.1//EN" "http://www.w3.org/Graphics/SVG/1.1/DTD/svg11.dtd"><svg t="1652367439823" class="icon" viewBox="0 0 1024 1024" version="1.1" xmlns="http://www.w3.org/2000/svg" p-id="38563" xmlns:xlink="http://www.w3.org/1999/xlink" width="200" height="200"><defs><style type="text/css"></style></defs><path d="M512 512m-307.2 0a307.2 307.2 0 1 0 614.4 0 307.2 307.2 0 1 0-614.4 0Z" fill="#CCDAFF" p-id="38564"></path><path d="M512 627.2m-23.04 0a23.04 23.04 0 1 0 46.08 0 23.04 23.04 0 1 0-46.08 0Z" fill="#7A7AF9" p-id="38565"></path><path d="M535.04 535.04c0 12.8-10.24 23.04-23.04 23.04s-23.04-10.24-23.04-23.04v-138.24c0-12.8 10.24-23.04 23.04-23.04s23.04 10.24 23.04 23.04v138.24z" fill="#7A7AF9" p-id="38566"></path></svg>